<mxfile host="app.diagrams.net" agent="Mozilla/5.0 (Windows NT 10.0; Win64; x64) AppleWebKit/537.36 (KHTML, like Gecko) Chrome/134.0.0.0 Safari/537.36" version="26.2.6">
  <diagram name="Page-1" id="DmDMtnHoKGEEPrb4R5d2">
    <mxGraphModel dx="1228" dy="675" grid="1" gridSize="10" guides="1" tooltips="1" connect="1" arrows="1" fold="1" page="1" pageScale="1" pageWidth="1169" pageHeight="1654" math="0" shadow="0">
      <root>
        <mxCell id="0" />
        <mxCell id="1" parent="0" />
        <mxCell id="UD4fD5zQZRy7qfz5CYqL-32" value="" style="rounded=0;whiteSpace=wrap;html=1;fillColor=none;dashed=1;" vertex="1" parent="1">
          <mxGeometry x="885" y="130" width="215" height="270" as="geometry" />
        </mxCell>
        <mxCell id="UD4fD5zQZRy7qfz5CYqL-31" value="" style="rounded=0;whiteSpace=wrap;html=1;fillColor=none;dashed=1;" vertex="1" parent="1">
          <mxGeometry x="770" y="130" width="80" height="270" as="geometry" />
        </mxCell>
        <mxCell id="UD4fD5zQZRy7qfz5CYqL-30" value="" style="rounded=0;whiteSpace=wrap;html=1;fillColor=none;dashed=1;" vertex="1" parent="1">
          <mxGeometry x="430" y="130" width="340" height="270" as="geometry" />
        </mxCell>
        <mxCell id="UD4fD5zQZRy7qfz5CYqL-29" value="" style="rounded=0;whiteSpace=wrap;html=1;fillColor=none;dashed=1;" vertex="1" parent="1">
          <mxGeometry x="135" y="130" width="295" height="270" as="geometry" />
        </mxCell>
        <mxCell id="UD4fD5zQZRy7qfz5CYqL-28" value="" style="rounded=0;whiteSpace=wrap;html=1;fillColor=none;dashed=1;" vertex="1" parent="1">
          <mxGeometry x="60" y="130" width="75" height="270" as="geometry" />
        </mxCell>
        <mxCell id="UD4fD5zQZRy7qfz5CYqL-1" value="" style="verticalLabelPosition=bottom;shadow=0;dashed=0;align=center;html=1;verticalAlign=top;shape=mxgraph.electrical.radio.aerial_-_antenna_2;" vertex="1" parent="1">
          <mxGeometry x="85" y="200" width="30" height="70" as="geometry" />
        </mxCell>
        <mxCell id="UD4fD5zQZRy7qfz5CYqL-16" style="edgeStyle=orthogonalEdgeStyle;rounded=0;orthogonalLoop=1;jettySize=auto;html=1;exitX=1;exitY=0.75;exitDx=0;exitDy=0;entryX=0.5;entryY=0;entryDx=0;entryDy=0;" edge="1" parent="1" source="UD4fD5zQZRy7qfz5CYqL-2" target="UD4fD5zQZRy7qfz5CYqL-7">
          <mxGeometry relative="1" as="geometry" />
        </mxCell>
        <mxCell id="UD4fD5zQZRy7qfz5CYqL-2" value="Filters and Mixers" style="rounded=0;whiteSpace=wrap;html=1;" vertex="1" parent="1">
          <mxGeometry x="145" y="260" width="120" height="60" as="geometry" />
        </mxCell>
        <mxCell id="UD4fD5zQZRy7qfz5CYqL-11" style="edgeStyle=orthogonalEdgeStyle;rounded=0;orthogonalLoop=1;jettySize=auto;html=1;exitX=0;exitY=0.5;exitDx=0;exitDy=0;entryX=0.5;entryY=0;entryDx=0;entryDy=0;" edge="1" parent="1" source="UD4fD5zQZRy7qfz5CYqL-3" target="UD4fD5zQZRy7qfz5CYqL-6">
          <mxGeometry relative="1" as="geometry" />
        </mxCell>
        <mxCell id="UD4fD5zQZRy7qfz5CYqL-3" value="Beam Steering" style="rounded=0;whiteSpace=wrap;html=1;" vertex="1" parent="1">
          <mxGeometry x="455" y="200" width="120" height="60" as="geometry" />
        </mxCell>
        <mxCell id="UD4fD5zQZRy7qfz5CYqL-17" style="edgeStyle=orthogonalEdgeStyle;rounded=0;orthogonalLoop=1;jettySize=auto;html=1;exitX=0;exitY=0.5;exitDx=0;exitDy=0;" edge="1" parent="1" source="UD4fD5zQZRy7qfz5CYqL-4" target="UD4fD5zQZRy7qfz5CYqL-3">
          <mxGeometry relative="1" as="geometry" />
        </mxCell>
        <mxCell id="UD4fD5zQZRy7qfz5CYqL-4" value="Chirp Generation" style="rounded=0;whiteSpace=wrap;html=1;" vertex="1" parent="1">
          <mxGeometry x="630" y="200" width="120" height="60" as="geometry" />
        </mxCell>
        <mxCell id="UD4fD5zQZRy7qfz5CYqL-20" style="edgeStyle=orthogonalEdgeStyle;rounded=0;orthogonalLoop=1;jettySize=auto;html=1;exitX=1;exitY=0.5;exitDx=0;exitDy=0;entryX=0;entryY=0.5;entryDx=0;entryDy=0;" edge="1" parent="1" source="UD4fD5zQZRy7qfz5CYqL-5" target="UD4fD5zQZRy7qfz5CYqL-19">
          <mxGeometry relative="1" as="geometry" />
        </mxCell>
        <mxCell id="UD4fD5zQZRy7qfz5CYqL-5" value="Target Detection" style="rounded=0;whiteSpace=wrap;html=1;" vertex="1" parent="1">
          <mxGeometry x="455" y="320" width="120" height="60" as="geometry" />
        </mxCell>
        <mxCell id="UD4fD5zQZRy7qfz5CYqL-15" style="edgeStyle=orthogonalEdgeStyle;rounded=0;orthogonalLoop=1;jettySize=auto;html=1;exitX=0.5;exitY=1;exitDx=0;exitDy=0;entryX=1;entryY=0.25;entryDx=0;entryDy=0;" edge="1" parent="1" source="UD4fD5zQZRy7qfz5CYqL-6" target="UD4fD5zQZRy7qfz5CYqL-2">
          <mxGeometry relative="1" as="geometry" />
        </mxCell>
        <mxCell id="UD4fD5zQZRy7qfz5CYqL-6" value="" style="shape=offPageConnector;whiteSpace=wrap;html=1;direction=south;" vertex="1" parent="1">
          <mxGeometry x="355" y="210" width="60" height="40" as="geometry" />
        </mxCell>
        <mxCell id="UD4fD5zQZRy7qfz5CYqL-18" style="edgeStyle=orthogonalEdgeStyle;rounded=0;orthogonalLoop=1;jettySize=auto;html=1;exitX=0.5;exitY=1;exitDx=0;exitDy=0;entryX=0;entryY=0.5;entryDx=0;entryDy=0;" edge="1" parent="1" source="UD4fD5zQZRy7qfz5CYqL-7" target="UD4fD5zQZRy7qfz5CYqL-5">
          <mxGeometry relative="1" as="geometry" />
        </mxCell>
        <mxCell id="UD4fD5zQZRy7qfz5CYqL-7" value="" style="shape=offPageConnector;whiteSpace=wrap;html=1;direction=north;size=0.25;" vertex="1" parent="1">
          <mxGeometry x="355" y="330" width="60" height="40" as="geometry" />
        </mxCell>
        <mxCell id="UD4fD5zQZRy7qfz5CYqL-8" value="DAC" style="text;html=1;align=center;verticalAlign=middle;whiteSpace=wrap;rounded=0;" vertex="1" parent="1">
          <mxGeometry x="365" y="215" width="60" height="30" as="geometry" />
        </mxCell>
        <mxCell id="UD4fD5zQZRy7qfz5CYqL-9" value="ADC" style="text;html=1;align=center;verticalAlign=middle;whiteSpace=wrap;rounded=0;" vertex="1" parent="1">
          <mxGeometry x="345" y="335" width="60" height="30" as="geometry" />
        </mxCell>
        <mxCell id="UD4fD5zQZRy7qfz5CYqL-19" value="Target Localization" style="rounded=0;whiteSpace=wrap;html=1;" vertex="1" parent="1">
          <mxGeometry x="630" y="320" width="120" height="60" as="geometry" />
        </mxCell>
        <mxCell id="UD4fD5zQZRy7qfz5CYqL-22" style="edgeStyle=orthogonalEdgeStyle;rounded=1;orthogonalLoop=1;jettySize=auto;html=1;exitX=0;exitY=0.5;exitDx=0;exitDy=0;entryX=0.5;entryY=1;entryDx=0;entryDy=0;entryPerimeter=0;curved=0;endArrow=none;startFill=0;" edge="1" parent="1" source="UD4fD5zQZRy7qfz5CYqL-2" target="UD4fD5zQZRy7qfz5CYqL-1">
          <mxGeometry relative="1" as="geometry" />
        </mxCell>
        <mxCell id="UD4fD5zQZRy7qfz5CYqL-23" value="" style="verticalLabelPosition=bottom;shadow=0;dashed=0;align=center;html=1;verticalAlign=top;shape=mxgraph.electrical.radio.aerial_-_antenna_2;" vertex="1" parent="1">
          <mxGeometry x="795" y="260" width="30" height="70" as="geometry" />
        </mxCell>
        <mxCell id="UD4fD5zQZRy7qfz5CYqL-24" style="edgeStyle=orthogonalEdgeStyle;rounded=1;orthogonalLoop=1;jettySize=auto;html=1;exitX=1;exitY=0.5;exitDx=0;exitDy=0;entryX=0.5;entryY=1;entryDx=0;entryDy=0;entryPerimeter=0;curved=0;endArrow=none;startFill=0;" edge="1" parent="1" source="UD4fD5zQZRy7qfz5CYqL-19" target="UD4fD5zQZRy7qfz5CYqL-23">
          <mxGeometry relative="1" as="geometry" />
        </mxCell>
        <mxCell id="UD4fD5zQZRy7qfz5CYqL-25" value="" style="verticalLabelPosition=bottom;shadow=0;dashed=0;align=center;html=1;verticalAlign=top;shape=mxgraph.electrical.radio.aerial_-_antenna_2;" vertex="1" parent="1">
          <mxGeometry x="895" y="260" width="30" height="70" as="geometry" />
        </mxCell>
        <mxCell id="UD4fD5zQZRy7qfz5CYqL-26" value="Ground Station" style="rounded=0;whiteSpace=wrap;html=1;" vertex="1" parent="1">
          <mxGeometry x="965" y="320" width="120" height="60" as="geometry" />
        </mxCell>
        <mxCell id="UD4fD5zQZRy7qfz5CYqL-27" style="edgeStyle=orthogonalEdgeStyle;rounded=1;orthogonalLoop=1;jettySize=auto;html=1;exitX=0;exitY=0.5;exitDx=0;exitDy=0;entryX=0.5;entryY=1;entryDx=0;entryDy=0;entryPerimeter=0;curved=0;endArrow=none;startFill=0;" edge="1" parent="1" source="UD4fD5zQZRy7qfz5CYqL-26" target="UD4fD5zQZRy7qfz5CYqL-25">
          <mxGeometry relative="1" as="geometry" />
        </mxCell>
        <mxCell id="UD4fD5zQZRy7qfz5CYqL-33" value="Antenna" style="text;html=1;align=center;verticalAlign=middle;whiteSpace=wrap;rounded=0;" vertex="1" parent="1">
          <mxGeometry x="70" y="140" width="60" height="30" as="geometry" />
        </mxCell>
        <mxCell id="UD4fD5zQZRy7qfz5CYqL-34" value="Transceiver" style="text;html=1;align=center;verticalAlign=middle;whiteSpace=wrap;rounded=0;" vertex="1" parent="1">
          <mxGeometry x="253" y="141" width="60" height="30" as="geometry" />
        </mxCell>
        <mxCell id="UD4fD5zQZRy7qfz5CYqL-35" value="DSP" style="text;html=1;align=center;verticalAlign=middle;whiteSpace=wrap;rounded=0;" vertex="1" parent="1">
          <mxGeometry x="570" y="140" width="60" height="30" as="geometry" />
        </mxCell>
        <mxCell id="UD4fD5zQZRy7qfz5CYqL-36" value="MCU" style="text;html=1;align=center;verticalAlign=middle;whiteSpace=wrap;rounded=0;" vertex="1" parent="1">
          <mxGeometry x="780" y="142" width="60" height="30" as="geometry" />
        </mxCell>
        <mxCell id="UD4fD5zQZRy7qfz5CYqL-37" value="Ground Station" style="text;html=1;align=center;verticalAlign=middle;whiteSpace=wrap;rounded=0;" vertex="1" parent="1">
          <mxGeometry x="949" y="141" width="87" height="30" as="geometry" />
        </mxCell>
      </root>
    </mxGraphModel>
  </diagram>
</mxfile>
